<svg width="160" height="160" viewBox="0 0 160 160" xmlns="http://www.w3.org/2000/svg" role="img" aria-label="MaClip icon">
  <defs>
    <linearGradient id="g" x1="0" y1="0" x2="1" y2="1">
      <stop offset="0%" stop-color="#3B82F6"/>
      <stop offset="100%" stop-color="#A855F7"/>
    </linearGradient>
  </defs>
  <!-- Outer rounded square with gradient -->
  <rect x="8" y="8" width="144" height="144" rx="28" fill="url(#g)"/>
  <!-- Inner subtle border -->
  <rect x="16" y="16" width="128" height="128" rx="24" fill="none" stroke="rgba(255,255,255,0.25)" stroke-width="2"/>
  <!-- Provided CoreSVG glyph, scaled and centered -->
  <g transform="translate(46.2, 40) scale(2.942)">
    <path d="M21.2988 4.36523L21.2988 17.9297C21.2988 19.9609 20.293 20.9961 18.2715 20.9961L17.9004 20.9961L17.9004 15.0879C17.9004 13.7695 17.7148 12.8027 16.582 11.6406L11.3672 6.32812C10.1172 5.04883 9.26758 4.84375 7.90039 4.84375L6.06445 4.84375L6.06445 4.36523C6.06445 2.32422 7.07031 1.29883 9.0918 1.29883L18.2715 1.29883C20.293 1.29883 21.2988 2.32422 21.2988 4.36523ZM11.2988 3.29102C10.8691 3.29102 10.6738 3.56445 10.6738 3.86719L10.6738 4.07227C10.6738 4.36523 10.8691 4.64844 11.2988 4.64844L16.0645 4.64844C16.4844 4.64844 16.6895 4.36523 16.6895 4.07227L16.6895 3.86719C16.6895 3.56445 16.4844 3.29102 16.0645 3.29102Z" fill="#FFFFFF" fill-opacity="0.85"/>
    <path d="M1.32812 22.8027C1.32812 24.8438 2.34375 25.8691 4.35547 25.8691L13.5352 25.8691C15.5566 25.8691 16.5625 24.834 16.5625 22.8027L16.5625 15.0879L9.74609 15.0879C8.48633 15.0879 7.90039 14.4922 7.90039 13.2422L7.90039 6.17188L4.35547 6.17188C2.34375 6.17188 1.32812 7.19727 1.32812 9.23828ZM9.73633 13.75L16.3965 13.75C16.2891 13.3691 16.0645 13.0176 15.6348 12.5684L10.4199 7.25586C9.98047 6.81641 9.60938 6.52344 9.23828 6.41602L9.23828 13.252C9.23828 13.584 9.4043 13.75 9.73633 13.75Z" fill="#FFFFFF" fill-opacity="0.85"/>
  </g>
</svg>

